<svg width="512" height="512" viewBox="0 0 512 512" fill="none" xmlns="http://www.w3.org/2000/svg">
<g clip-path="url(#clip0_42_2)">
<path d="M256 16C123.8 16 16 123.8 16 256C16 388.2 123.8 496 256 496C388.2 496 496 388.2 496 256C496 123.8 388.2 16 256 16Z" fill="#0F172A"/>
<path d="M256 64C149.9 64 64 149.9 64 256C64 362.1 149.9 448 256 448C362.1 448 448 362.1 448 256C448 149.9 362.1 64 256 64Z" fill="#1E293B"/>
<path d="M368 256C368 282.5 357.5 306.5 340.9 323.1C324.3 339.7 300.3 350 271.8 350C243.3 350 219.3 339.7 202.7 323.1C186.1 306.5 175.6 282.5 175.6 256C175.6 229.5 186.1 205.5 202.7 188.9C219.3 172.3 243.3 162 271.8 162C300.3 162 324.3 172.3 340.9 188.9C357.5 205.5 368 229.5 368 256Z" stroke="#6366F1" stroke-width="16"/>
<path d="M294 256C294 269.3 283.3 280 270 280C256.7 280 246 269.3 246 256C246 242.7 256.7 232 270 232C283.3 232 294 242.7 294 256Z" fill="#6366F1"/>
<path d="M256 384C202.4 384 156.4 365.3 128 336" stroke="#6366F1" stroke-width="16" stroke-linecap="round"/>
<path d="M384 336C355.6 365.3 309.6 384 256 384" stroke="#6366F1" stroke-width="16" stroke-linecap="round"/>
<path d="M128 176C156.4 146.7 202.4 128 256 128" stroke="#6366F1" stroke-width="16" stroke-linecap="round"/>
<path d="M256 128C309.6 128 355.6 146.7 384 176" stroke="#6366F1" stroke-width="16" stroke-linecap="round"/>
</g>
<defs>
<clipPath id="clip0_42_2">
<rect width="512" height="512" fill="white"/>
</clipPath>
</defs>
</svg>
